<mxfile host="app.diagrams.net" modified="2023-10-19T10:53:29.423Z" agent="Mozilla/5.0 (Windows NT 10.0; Win64; x64) AppleWebKit/537.36 (KHTML, like Gecko) Chrome/118.0.0.0 Safari/537.36" etag="CyMkE_Bduh-q7q6ciluC" version="22.0.5" type="github">
  <diagram name="Page-1" id="929967ad-93f9-6ef4-fab6-5d389245f69c">
    <mxGraphModel dx="2074" dy="1150" grid="1" gridSize="10" guides="1" tooltips="1" connect="1" arrows="1" fold="1" page="1" pageScale="1.5" pageWidth="1169" pageHeight="826" background="none" math="0" shadow="0">
      <root>
        <mxCell id="0" style=";html=1;" />
        <mxCell id="1" style=";html=1;" parent="0" />
        <mxCell id="1672d66443f91eb5-1" value="&lt;p style=&quot;margin: 0px ; margin-top: 4px ; margin-left: 10px ; text-align: left&quot;&gt;&lt;b&gt;ISEF01 Quizapp Context-Diagram&lt;/b&gt;&lt;/p&gt;" style="html=1;strokeWidth=1;shape=mxgraph.sysml.package;html=1;overflow=fill;whiteSpace=wrap;fillColor=none;gradientColor=none;fontSize=12;align=center;labelX=327.64;" parent="1" vertex="1">
          <mxGeometry x="320" y="200" width="1150" height="440" as="geometry" />
        </mxCell>
        <mxCell id="A_FNVseMD4v95XN17Wgb-1" value="Anwender" style="shape=umlActor;verticalLabelPosition=bottom;verticalAlign=top;html=1;" vertex="1" parent="1">
          <mxGeometry x="120" y="540" width="60" height="100" as="geometry" />
        </mxCell>
        <mxCell id="A_FNVseMD4v95XN17Wgb-3" value="&lt;p style=&quot;margin: 0px ; margin-top: 4px ; margin-left: 10px ; text-align: left&quot;&gt;&lt;b&gt;Vercel Hosting&lt;/b&gt;&lt;/p&gt;" style="html=1;strokeWidth=1;shape=mxgraph.sysml.package;html=1;overflow=fill;whiteSpace=wrap;fillColor=none;gradientColor=none;fontSize=12;align=center;labelX=327.64;" vertex="1" parent="1">
          <mxGeometry x="360" y="270" width="520" height="310" as="geometry" />
        </mxCell>
        <mxCell id="A_FNVseMD4v95XN17Wgb-2" value="&lt;p&gt;&amp;lt;&amp;lt;Software System&amp;gt;&amp;gt;&lt;/p&gt;&lt;p&gt;QuizApp&lt;br&gt;&lt;br&gt;Entwickelte Quiz-Anwendung inkl. Front- und Backend&lt;/p&gt;" style="shape=rect;html=1;overflow=fill;whiteSpace=wrap;align=center;fontStyle=1" vertex="1" parent="1">
          <mxGeometry x="400" y="320" width="170" height="110" as="geometry" />
        </mxCell>
        <mxCell id="A_FNVseMD4v95XN17Wgb-4" value="&lt;p style=&quot;margin: 0px ; margin-top: 4px ; margin-left: 10px ; text-align: left&quot;&gt;&lt;b&gt;MongoDB Cloud&lt;/b&gt;&lt;/p&gt;" style="html=1;strokeWidth=1;shape=mxgraph.sysml.package;html=1;overflow=fill;whiteSpace=wrap;fillColor=none;gradientColor=none;fontSize=12;align=center;labelX=327.64;" vertex="1" parent="1">
          <mxGeometry x="900" y="270" width="520" height="310" as="geometry" />
        </mxCell>
        <mxCell id="A_FNVseMD4v95XN17Wgb-5" value="&lt;p&gt;&amp;lt;&amp;lt;Software System&amp;gt;&amp;gt;&lt;/p&gt;&lt;p&gt;MongoDB Atlas&lt;br&gt;&lt;br&gt;Stellt Zugriff auf MongoDB Datenbank sicher&lt;/p&gt;" style="shape=rect;html=1;overflow=fill;whiteSpace=wrap;align=center;fontStyle=1" vertex="1" parent="1">
          <mxGeometry x="940" y="320" width="170" height="110" as="geometry" />
        </mxCell>
        <mxCell id="A_FNVseMD4v95XN17Wgb-7" value="" style="endArrow=classic;html=1;rounded=0;dashed=1;dashPattern=8 8;entryX=0;entryY=1;entryDx=0;entryDy=0;" edge="1" parent="1" target="A_FNVseMD4v95XN17Wgb-2">
          <mxGeometry width="50" height="50" relative="1" as="geometry">
            <mxPoint x="200" y="600" as="sourcePoint" />
            <mxPoint x="220" y="740" as="targetPoint" />
          </mxGeometry>
        </mxCell>
        <mxCell id="A_FNVseMD4v95XN17Wgb-8" value="Uses&lt;br&gt;[HTTPS]" style="edgeLabel;html=1;align=center;verticalAlign=middle;resizable=0;points=[];" vertex="1" connectable="0" parent="A_FNVseMD4v95XN17Wgb-7">
          <mxGeometry x="-0.3083" relative="1" as="geometry">
            <mxPoint as="offset" />
          </mxGeometry>
        </mxCell>
        <mxCell id="A_FNVseMD4v95XN17Wgb-9" value="" style="endArrow=classic;html=1;rounded=0;dashed=1;dashPattern=8 8;" edge="1" parent="1" target="A_FNVseMD4v95XN17Wgb-5">
          <mxGeometry width="50" height="50" relative="1" as="geometry">
            <mxPoint x="570" y="370" as="sourcePoint" />
            <mxPoint x="770" y="200" as="targetPoint" />
          </mxGeometry>
        </mxCell>
        <mxCell id="A_FNVseMD4v95XN17Wgb-10" value="Read &amp;amp; Write Data&lt;br&gt;[wire]" style="edgeLabel;html=1;align=center;verticalAlign=middle;resizable=0;points=[];" vertex="1" connectable="0" parent="A_FNVseMD4v95XN17Wgb-9">
          <mxGeometry x="-0.3083" relative="1" as="geometry">
            <mxPoint as="offset" />
          </mxGeometry>
        </mxCell>
      </root>
    </mxGraphModel>
  </diagram>
</mxfile>
